<?xml version="1.0" encoding="UTF-8"?>
<svg id="Layer_1" data-name="Layer 1" xmlns="http://www.w3.org/2000/svg" viewBox="0 0 1104.02 252.47">
  <defs>
    <style>
      .cls-1, .cls-2 {
        fill: #231f20;
      }

      .cls-2 {
        font-family: HelveticaNeue-Bold, 'Helvetica Neue';
        font-size: 34.59px;
        font-weight: 700;
      }

      .cls-3 {
        fill: none;
        stroke: #231f20;
        stroke-miterlimit: 10;
        stroke-width: 5px;
      }
    </style>
  </defs>
  <path class="cls-1" d="M91.92,0l-15.41,89.28h0c7.25-7.91,16.62-15.52,24.2-19.14,7.58-3.62,20.11-6.66,31.31-6.66s22.39,1.2,30.07,5.04,17.9,12.99,22.08,20.08c3.57,6.06,7.63,16.36,9.14,25.32s1.9,18.67,1.9,28.55c0,13.18-4.62,26.66-8.35,39.51-3.74,12.85-11.07,23.29-18.53,33.28-7.47,10-16.69,18.07-27.67,24.21-10.98,6.15-23.72,9.22-38.21,9.22-11.86,0-22.68-2.2-32.45-6.59-9.77-4.39-16.75-12.52-20.92-24.38h-.66l-5.6,26.68H0L41.61,0h50.31ZM85.68,110.7c-6.37,4.83-11.71,12.08-15.77,19.32-4.07,7.25-6.68,14.57-8.54,23.14-1.87,8.56-1.41,17.24-1.41,24.71,0,10.54,2.96,19.16,8.89,25.86,5.93,6.7,14.27,10.05,25.03,10.05,9,0,16.64-2.31,22.89-6.92,6.26-4.61,11.42-10.48,15.48-17.62,4.06-7.13,7.03-14.87,8.89-23.22,1.86-8.34,2.8-16.14,2.8-23.39,0-10.76-.51-22.57-5.55-29.81-5.05-7.25-15-12.62-27.08-12.62-9.22,0-19.27,5.69-25.63,10.52Z"/>
  <path class="cls-1" d="M224.34,92.9c5.38-7.6,11.94-13.75,19.66-18.43,7.72-4.68,16.38-8.01,25.98-10.01,9.59-1.99,19.54-2.98,29.84-2.98,8.19,0,16.73.59,25.63,1.76,8.89,1.17,17.08,3.46,24.58,6.85,7.49,3.4,13.63,8.2,18.43,14.4,4.79,6.2,7.08,14.46,6.85,24.75,0,8.66-1.29,18.84-3.86,30.54l-14.13,73.39c-.94,3.28-.76,8.53-1.11,13.32-.35,4.8.56,7.59.56,11.1,0,3.04-.19,7.36-.19,7.36l-47.83.27-.28-16.51c-6.79,7.72-18.83,14.7-28.66,18.33-9.83,3.63-20.01,5.44-30.54,5.44-9.83,0-18.43-1.29-25.81-3.86-7.37-2.57-13.52-6.02-18.43-10.36-4.92-4.33-8.55-9.36-10.88-15.1-2.34-5.73-3.51-11.76-3.51-18.08,0-17.56,6.02-31.6,18.08-42.13,12.05-10.53,29.08-17.08,51.08-19.66,11.7-1.4,21.88-2.46,30.55-3.16,8.66-.7,15.85-1.81,21.59-3.34,5.73-1.52,10.01-3.74,12.81-6.67,2.81-2.92,4.21-7.31,4.21-13.17,0-4.68-1.05-8.43-3.16-11.23s-4.74-5.03-7.9-6.67c-3.16-1.63-6.56-2.75-10.18-3.34-3.63-.58-7.08-.88-10.36-.88-8.9,0-16.85,2.17-23.87,6.5-7.02,4.33-11.36,11.06-12.99,20.19h-46.7c1.63-11.47,5.15-21.01,10.53-28.61ZM298.77,167.68c-7.26.82-14.52,1.47-21.77,1.93-4.68.47-9.25,1.23-13.69,2.28-4.45,1.05-8.37,2.63-11.76,4.74-3.4,2.11-6.14,4.98-8.25,8.6-2.11,3.63-3.16,8.25-3.16,13.87,0,6.79,2.75,11.88,8.25,15.27,5.5,3.4,11.88,5.09,19.13,5.09,7.72,0,14.22-1.23,19.49-3.69,5.27-2.46,9.71-5.62,13.34-9.48,3.63-3.86,6.49-8.25,8.6-13.17,2.11-4.91,3.86-9.83,5.27-14.75l4.92-17.55c-6.32,3.75-13.11,6.03-20.36,6.85Z"/>
  <path class="cls-1" d="M448.15,67.32l-5.2,37.44h0c5.27-11.86,10.99-19.76,21.67-27.34,9.98-7.09,23.55-13.87,34.06-14.45,4.82-.27,12.76-.62,17.59.04l-7.84,45.72c-3.29-.66-9.39-.49-12.74-.63-3.59-.15-11.55.12-14.78.75-9.2,1.78-14.24,3.58-20.02,7.48-4.12,2.78-8.23,8.15-12.16,13.78s-7.69,11.26-10.21,17.95c-2.53,6.7-4.56,13.67-6.09,20.92l-15.81,75.43h-46.45l32.34-177.11h45.66Z"/>
  <path class="cls-1" d="M930.57,69.04l-2.6,21.42h0c15.15-18.88,42.6-27.74,67.2-27.74,33.16,0,49.82,21.59,49.82,52.11,0,1.76-.22,4.01-.66,6.75-.44,2.75-.94,5.55-1.48,8.4-.55,2.86-1.1,5.55-1.65,8.07-.55,2.53-.94,4.56-1.15,6.09l-16.27,99.81h-51.59l17.61-99.57c.32-4.7.14-6.82.91-11.21.77-4.39-.45-8.79-.45-11.21,0-5.05-1.95-12.16-6.67-15.46-4.72-3.29-11.79-5.3-17.27-5.3-7.03,0-13.86,1.35-19.24,4.09-5.38,2.75-9.44,6.03-13.28,10.42-3.84,4.4-6.1,10.58-8.62,16.29-2.53,5.71-3.79,15.41-5.11,21.34l-17.56,90.62h-47.58l30.14-174.92h45.52Z"/>
  <text class="cls-2" transform="translate(1066.66 97.58)"><tspan x="0" y="0">R</tspan></text>
  <circle class="cls-3" cx="1078.92" cy="85.31" r="22.6"/>
  <path class="cls-1" d="M542.67,169.94v7.23c0,10.33,3.21,18.71,9.64,25.13,6.42,6.43,16.29,9.64,29.6,9.64,4.82,0,9.12-.74,12.91-2.24,3.79-1.49,7.11-3.38,9.98-5.68,2.87-2.29,5.39-4.93,7.57-7.92,2.18-2.98,4.18-5.85,6.02-8.61h48.88c-3.91,10.1-8.49,18.93-13.77,26.51-5.28,7.57-11.59,13.94-18.93,19.11-7.35,5.16-15.89,9.01-25.65,11.53-9.76,2.52-21.06,3.79-33.91,3.79-11.93,0-22.78-1.61-32.53-4.82-9.76-3.21-18.07-8.09-24.96-14.63-6.88-6.54-12.22-14.63-16.01-24.27s-5.68-20.88-5.68-33.73c0-14.23,2.29-27.94,6.88-41.14,4.59-13.19,11.07-24.9,19.45-35.11,8.37-10.21,18.64-18.36,30.81-24.44,12.16-6.08,25.82-9.12,40.96-9.12,12.39,0,23.69,1.61,33.91,4.82,10.21,3.22,18.93,8.09,26.16,14.63,7.23,6.54,12.85,14.69,16.87,24.44,4.01,9.76,6.02,21.06,6.02,33.91,0,8.72-.92,18.02-2.75,27.88h-131.15c-.23,1.15-.34,2.18-.34,3.1ZM628.55,122.27c-.81-4.47-2.36-8.55-4.65-12.22-2.3-3.67-5.63-6.59-9.98-8.78-4.36-2.18-10.1-3.27-17.21-3.27s-12.97,1.03-18.24,3.1c-5.28,2.07-9.87,4.82-13.77,8.26-3.91,3.44-7.18,7.46-9.81,12.05-2.64,4.59-4.88,9.41-6.71,14.46h81.58c0-4.59-.4-9.12-1.2-13.6Z"/>
  <path class="cls-1" d="M727.48,169.94v7.23c0,10.33,3.21,18.71,9.64,25.13,6.42,6.43,16.29,9.64,29.6,9.64,4.82,0,9.12-.74,12.91-2.24,3.79-1.49,7.11-3.38,9.98-5.68,2.87-2.29,5.39-4.93,7.57-7.92,2.18-2.98,4.18-5.85,6.02-8.61h48.88c-3.91,10.1-8.49,18.93-13.77,26.51-5.28,7.57-11.59,13.94-18.93,19.11-7.35,5.16-15.89,9.01-25.65,11.53-9.76,2.52-21.06,3.79-33.91,3.79-11.94,0-22.78-1.61-32.53-4.82-9.76-3.21-18.07-8.09-24.96-14.63-6.88-6.54-12.22-14.63-16.01-24.27-3.79-9.64-5.68-20.88-5.68-33.73,0-14.23,2.29-27.94,6.88-41.14,4.59-13.19,11.07-24.9,19.45-35.11,8.38-10.21,18.64-18.36,30.81-24.44,12.16-6.08,25.82-9.12,40.96-9.12,12.39,0,23.69,1.61,33.91,4.82,10.21,3.22,18.93,8.09,26.16,14.63,7.23,6.54,12.85,14.69,16.87,24.44,4.01,9.76,6.02,21.06,6.02,33.91,0,8.72-.92,18.02-2.75,27.88h-131.15c-.23,1.15-.34,2.18-.34,3.1ZM813.37,122.27c-.81-4.47-2.36-8.55-4.65-12.22-2.3-3.67-5.63-6.59-9.98-8.78-4.36-2.18-10.1-3.27-17.21-3.27s-12.97,1.03-18.24,3.1c-5.28,2.07-9.87,4.82-13.77,8.26-3.91,3.44-7.17,7.46-9.81,12.05-2.64,4.59-4.88,9.41-6.71,14.46h81.58c0-4.59-.4-9.12-1.2-13.6Z"/>
</svg>