<svg width="428" height="352" viewBox="0 0 428 352" fill="none" xmlns="http://www.w3.org/2000/svg">
<g clip-path="url(#clip0_605_243)">
<path d="M46.9217 11.0605C25.0448 11.0605 8.00781 32.781 8.00781 59.6259C8.00781 86.4709 18.1079 108.231 44.9297 108.231C71.7516 108.231 85.9758 89.5666 85.9758 62.7267C85.9758 35.8867 71.3461 11.0605 46.9217 11.0605ZM46.191 65.5269C38.4833 66.0779 36.7065 57.532 36.7065 47.3431C36.7065 37.1541 42.2921 27.6664 46.9968 27.6664C51.7015 27.6664 56.8917 37.4647 56.8917 47.6586C56.8917 57.8526 54.4643 64.9408 46.196 65.5319L46.191 65.5269Z" fill="#DA3527"/>
<path d="M185.631 90.9995C185.506 87.2826 176.281 69.0336 156.792 57.8728C153.464 55.9693 172.928 45.4347 170.621 27.1106C169.079 14.8628 164.71 2.43969 151.882 0.706469C147.843 0.160453 146.221 -1.01674 135.435 1.85861C129.219 3.5167 126.602 8.64624 122.337 8.20041C115.816 7.51414 110.12 1.1523 101.256 1.29757C90.4355 1.4779 85.6807 7.82972 85.2203 10.0038C81.2263 28.8238 97.1272 29.9008 98.8939 37.3597C100.02 42.0985 99.8549 56.6957 96.3214 63.3881C78.969 96.2693 81.997 120.149 110.616 120.149C122.863 120.149 134.91 110.441 134.409 98.283C134.409 98.283 134.359 91.3351 131.416 83.6258C128.694 76.5025 122.993 68.713 124.429 65.5521C126.176 61.71 136.887 63.1727 141.567 74.7993C142.558 77.2539 142.663 84.4724 142.708 91.4553C142.748 98.0426 142.232 103.588 143.474 106.694C143.689 107.23 143.929 108.106 144.53 109.028C145.275 110.185 146.006 111.282 146.056 111.362C152.197 121.526 165.896 121.376 172.688 118.26C190.36 110.155 185.826 96.8153 185.631 90.9895V90.9995ZM139.294 30.7173C137.758 36.5031 131.371 40.6057 126.126 40.6057C120.881 40.6057 122.102 35.4812 123.659 30.8125C125.551 25.1319 130.671 19.6467 135.916 19.6467C141.161 19.6467 140.856 24.8664 139.299 30.7223L139.294 30.7173Z" fill="#DA3527"/>
<path d="M85.3452 171.86C86.5314 174.775 87.0469 177.931 86.7817 181.067C84.8748 203.434 69.1841 209.7 54.6395 209.7C39.124 209.7 24.6045 198.059 24.6045 171.865C24.6045 168.819 26.5865 159.968 34.8698 158.375C43.153 156.782 46.9969 165.218 53.2832 165.112C56.8367 165.052 55.9458 162.367 55.7907 162.057C53.9138 158.265 32.8728 148.577 30.7256 136.69C30.3402 134.551 29.2591 127.548 33.1881 122.668C37.9328 116.778 47.3422 112.95 53.8437 113.091C60.5554 113.236 73.078 115.014 76.9568 120.144C78.2732 121.887 80.8457 127.903 79.0589 132.462C77.4523 136.574 72.3222 139.575 71.7967 139.835C70.3152 140.562 55.155 137.125 57.0369 140.492C60.8507 147.314 70.09 152.043 71.6015 152.99C78.5885 157.358 83.113 166.39 85.3402 171.86H85.3452Z" fill="#DA3527"/>
<path d="M174.97 196.701C174.615 195.203 172.142 188.13 169.37 185.145C168.934 184.674 158.429 169.541 160.421 165.829C172.337 143.627 169.324 126.4 134.194 122.924C119.044 121.421 105.776 125.584 100.335 135.282C96.1513 142.736 95.0752 143.707 102.578 165.999C105.451 174.53 96.0062 179.77 89.0092 193.435C84.2294 202.772 91.1463 212.691 94.3745 214.795C96.2314 216.007 100.476 218.822 106.737 219.769C117.393 221.382 128.569 212.26 129.48 203.935C129.65 202.402 131.372 200.939 126.702 190.86C120.165 176.749 116.076 176.088 117.643 171.715C118.589 169.075 122.758 165.889 132.393 166.345C134.375 166.44 144.034 167.502 145.26 170.582C147.393 175.922 132.072 195.213 133.323 202.767C136.917 224.453 160.766 219.714 160.766 219.714C174.124 212.946 176.602 203.629 174.96 196.696L174.97 196.701ZM131.402 154.848C124.82 154.848 120.03 154.077 120.03 151.191C120.03 148.306 124.82 144.399 131.402 144.399C137.983 144.399 142.878 148.146 142.878 151.031C142.878 153.916 137.983 154.848 131.402 154.848Z" fill="#DA3527"/>
<path d="M341.9 203.2L316.4 166.45H340.7L354.35 186.7L367.85 166.45H391.4L365.9 202.75L394.55 244H370.25L354.05 219.55L337.85 244H314L341.9 203.2Z" fill="white"/>
<path d="M52.2822 261.943L46.8643 293.401L46.5742 295.083L47.7256 293.824C50.2966 291.013 53.6023 288.33 56.2393 287.068C58.8834 285.803 63.2965 284.727 67.2363 284.727C71.1103 284.727 74.8976 285.133 77.5303 286.361L77.7812 286.482C79.1034 287.145 80.6692 288.28 82.0938 289.572C83.4306 290.785 84.6118 292.107 85.3418 293.267L85.4814 293.496C86.6527 295.489 87.9843 298.812 88.583 301.816L88.6934 302.413C89.2273 305.588 89.3662 309.041 89.3662 312.577C89.3662 316.057 88.4537 319.598 87.4287 323.114L86.3955 326.618C85.2476 330.571 83.1337 333.885 80.834 337.053L79.8389 338.403C77.3704 341.715 74.3611 344.426 70.8047 346.54L70.0859 346.955C66.2392 349.114 61.7633 350.2 56.6465 350.2C52.4624 350.2 48.6584 349.423 45.2305 347.879C41.8783 346.369 39.4615 343.571 38.0049 339.419L37.8877 339.085H36.8906L36.8076 339.482L34.8848 348.66H20.5488L35.2803 261.943H52.2822ZM59.8193 296.906C56.7266 296.906 53.4457 298.596 51.1406 300.201V300.167L50.3379 300.776C48.1275 302.456 46.273 304.906 44.8379 307.371L44.5566 307.864C43.1639 310.351 42.2411 312.857 41.5752 315.729L41.4463 316.308C40.7619 319.447 40.9297 322.638 40.9297 325.282C40.9297 329.043 41.9531 332.181 44.0342 334.657L44.2383 334.895C46.4758 337.428 49.6118 338.671 53.5771 338.671C56.8896 338.671 59.7339 337.817 62.0713 336.089L62.0723 336.09C64.2297 334.498 66.0283 332.498 67.4697 330.096L67.7539 329.61C69.1409 327.169 70.1777 324.534 70.8594 321.706L70.9902 321.138C71.6628 318.115 72.0049 315.279 72.0049 312.635C72.0049 310.7 71.9604 308.644 71.6836 306.739C71.4248 304.958 70.958 303.267 70.1045 301.916L69.9287 301.65C68.0148 298.897 64.2872 296.906 59.8193 296.906Z" fill="white" stroke="white"/>
<path d="M127.537 283.928C130.438 283.928 133.465 284.137 136.624 284.555V284.556C139.753 284.97 142.63 285.779 145.26 286.974V286.975C147.701 288.089 149.723 289.63 151.336 291.597L151.653 291.996C153.174 293.975 153.973 296.598 154.001 299.898L153.996 300.568V300.579C153.996 303.642 153.542 307.261 152.629 311.439L152.626 311.453L147.583 337.79C147.403 338.436 147.336 339.243 147.295 340.065C147.263 340.711 147.247 341.36 147.215 342.006L147.176 342.649C147.11 343.553 147.163 344.267 147.23 344.905C147.298 345.551 147.375 346.076 147.375 346.672C147.375 347.209 147.358 347.864 147.341 348.387C147.336 348.545 147.33 348.691 147.325 348.817L131.218 348.909L131.126 343.475L131.104 342.177L130.25 343.154C128.045 345.675 124.201 348.001 120.875 349.342L120.218 349.597C116.763 350.879 113.187 351.52 109.485 351.52C106.234 351.52 103.383 351.117 100.921 350.325L100.434 350.161C98.0127 349.312 95.9835 348.197 94.3418 346.818L94.0186 346.539L94.0176 346.538L93.7041 346.253C92.2639 344.909 91.1711 343.383 90.4209 341.672L90.2646 341.303V341.302L90.1172 340.926C89.4046 339.042 89.0479 337.066 89.0479 334.997C89.0479 329.012 91.0186 324.227 94.9482 320.592L95.334 320.243H95.335C99.4066 316.665 105.14 314.369 112.579 313.394L113.305 313.304H113.306C116.958 312.864 120.193 312.518 123.013 312.271L124.196 312.171C127.306 311.918 129.906 311.516 131.995 310.956L131.994 310.955C134.09 310.396 135.716 309.565 136.803 308.422L136.802 308.421C137.927 307.244 138.443 305.522 138.443 303.348C138.443 301.705 138.1 300.316 137.367 299.229L137.215 299.016C136.516 298.083 135.666 297.316 134.664 296.721L134.226 296.477L134.224 296.476L133.779 296.256C132.881 295.834 131.933 295.521 130.939 295.318L130.439 295.227H130.438C129.119 295.015 127.861 294.904 126.659 294.904C123.395 294.904 120.463 295.706 117.871 297.313C115.336 298.886 113.745 301.296 113.086 304.489H97.4004C97.9666 300.935 99.0545 297.945 100.646 295.508L100.988 295.003L100.991 294.999C102.757 292.491 104.882 290.436 107.362 288.834L107.863 288.52C110.398 286.974 113.228 285.843 116.354 285.125L116.983 284.987C120.373 284.28 123.891 283.928 127.537 283.928ZM134.181 318.673C131.984 319.983 129.627 320.779 127.109 321.065L126.936 321.086L126.934 321.087C124.406 321.371 121.879 321.599 119.356 321.76L119.347 321.761L119.338 321.762C117.857 321.911 116.405 322.142 114.988 322.453L114.384 322.592C112.953 322.931 111.663 323.422 110.517 324.069L110.034 324.356C108.827 325.11 107.843 326.117 107.072 327.365L106.921 327.618C106.111 329.02 105.725 330.773 105.725 332.85C105.725 335.287 106.658 337.192 108.522 338.504L108.907 338.758C110.96 340.034 113.333 340.661 116.003 340.661C118.635 340.661 120.908 340.266 122.802 339.456L123.175 339.289C124.988 338.438 126.542 337.355 127.836 336.039L128.092 335.773C129.345 334.433 130.349 332.92 131.109 331.237L131.258 330.898C131.924 329.339 132.491 327.776 132.964 326.212L133.16 325.542L133.161 325.539L134.918 319.236L135.254 318.032L134.181 318.673Z" fill="white" stroke="white"/>
<path d="M198.794 284.488C200.364 284.4 202.793 284.294 204.481 284.442L201.848 299.799C201.289 299.731 200.631 299.703 199.996 299.688C199.561 299.677 199.141 299.672 198.755 299.667L197.716 299.645C196.496 299.594 193.875 299.674 192.553 299.879L192.306 299.922C189.181 300.527 187.337 301.146 185.352 302.414L184.952 302.676C183.583 303.6 182.247 305.247 180.997 306.988L180.467 307.738C179.147 309.628 177.852 311.557 176.932 313.817L176.753 314.273C175.952 316.393 175.289 318.587 174.766 320.858L174.55 321.835V321.836L168.971 348.442H153.342L164.741 286.039H180.096L178.312 298.88L179.264 299.152C181.006 295.233 182.87 292.57 186.176 290.068L186.857 289.569C190.297 287.126 194.876 284.836 198.45 284.513L198.793 284.488H198.794Z" fill="white" stroke="white"/>
<path d="M377.146 284.368C382.977 284.368 387.298 286.264 390.166 289.448C393.041 292.639 394.511 297.185 394.511 302.578C394.511 303.024 394.469 303.574 394.383 304.23L394.281 304.922C394.124 305.903 393.946 306.904 393.753 307.923C393.655 308.435 393.556 308.931 393.458 309.412L393.164 310.808L393.163 310.809C392.967 311.714 392.824 312.454 392.746 313.021L386.98 348.438H369.502L375.714 313.275L375.718 313.249L375.72 313.221C375.823 311.698 375.784 310.98 375.953 309.792L376.04 309.249C376.19 308.392 376.144 307.549 376.067 306.832C376.029 306.476 375.982 306.134 375.946 305.85C375.91 305.555 375.886 305.321 375.886 305.138C375.886 304.174 375.701 303.021 375.292 301.949C374.91 300.946 374.317 299.976 373.457 299.307L373.281 299.177H373.28C371.497 297.932 368.86 297.184 366.802 297.184C364.385 297.184 362.009 297.618 360.06 298.52L359.676 298.707L359.675 298.708C357.81 299.662 356.37 300.792 355.03 302.265L354.764 302.565C353.682 303.805 352.935 305.423 352.257 306.997L351.592 308.541C351.115 309.619 350.767 311.049 350.481 312.444C350.261 313.518 350.082 314.546 349.906 315.444L349.729 316.296L349.727 316.31L343.508 348.442H327.453L338.089 286.637H353.418L352.554 293.767L352.343 295.51L353.44 294.14C358.745 287.521 368.415 284.368 377.146 284.368Z" fill="white" stroke="white"/>
<mask id="path-10-inside-1_605_243" fill="white">
<path d="M406.09 291.785H407.81C408.17 291.785 408.44 291.705 408.62 291.545C408.8 291.385 408.89 291.125 408.89 290.765C408.89 290.419 408.8 290.169 408.62 290.015C408.44 289.855 408.17 289.775 407.81 289.775H406.09V291.785ZM404.52 288.555H408.37C408.69 288.555 408.977 288.609 409.23 288.715C409.49 288.815 409.71 288.955 409.89 289.135C410.077 289.315 410.217 289.525 410.31 289.765C410.41 289.999 410.46 290.252 410.46 290.525C410.46 290.945 410.37 291.309 410.19 291.615C410.017 291.922 409.73 292.155 409.33 292.315V292.335C409.523 292.389 409.683 292.472 409.81 292.585C409.937 292.692 410.04 292.822 410.12 292.975C410.2 293.122 410.257 293.285 410.29 293.465C410.33 293.645 410.357 293.825 410.37 294.005C410.377 294.119 410.383 294.252 410.39 294.405C410.397 294.559 410.407 294.715 410.42 294.875C410.44 295.035 410.467 295.189 410.5 295.335C410.54 295.475 410.597 295.595 410.67 295.695H409.1C409.013 295.469 408.96 295.199 408.94 294.885C408.92 294.572 408.89 294.272 408.85 293.985C408.797 293.612 408.683 293.339 408.51 293.165C408.337 292.992 408.053 292.905 407.66 292.905H406.09V295.695H404.52V288.555Z"/>
</mask>
<path d="M406.09 291.785H407.81C408.17 291.785 408.44 291.705 408.62 291.545C408.8 291.385 408.89 291.125 408.89 290.765C408.89 290.419 408.8 290.169 408.62 290.015C408.44 289.855 408.17 289.775 407.81 289.775H406.09V291.785ZM404.52 288.555H408.37C408.69 288.555 408.977 288.609 409.23 288.715C409.49 288.815 409.71 288.955 409.89 289.135C410.077 289.315 410.217 289.525 410.31 289.765C410.41 289.999 410.46 290.252 410.46 290.525C410.46 290.945 410.37 291.309 410.19 291.615C410.017 291.922 409.73 292.155 409.33 292.315V292.335C409.523 292.389 409.683 292.472 409.81 292.585C409.937 292.692 410.04 292.822 410.12 292.975C410.2 293.122 410.257 293.285 410.29 293.465C410.33 293.645 410.357 293.825 410.37 294.005C410.377 294.119 410.383 294.252 410.39 294.405C410.397 294.559 410.407 294.715 410.42 294.875C410.44 295.035 410.467 295.189 410.5 295.335C410.54 295.475 410.597 295.595 410.67 295.695H409.1C409.013 295.469 408.96 295.199 408.94 294.885C408.92 294.572 408.89 294.272 408.85 293.985C408.797 293.612 408.683 293.339 408.51 293.165C408.337 292.992 408.053 292.905 407.66 292.905H406.09V295.695H404.52V288.555Z" fill="white"/>
<path d="M406.09 291.785H405.09V292.785H406.09V291.785ZM408.62 290.015L407.956 290.763L407.964 290.77L407.972 290.777L408.62 290.015ZM406.09 289.775V288.775H405.09V289.775H406.09ZM404.52 288.555V287.555H403.52V288.555H404.52ZM409.23 288.715L408.842 289.637L408.856 289.643L408.871 289.649L409.23 288.715ZM409.89 289.135L409.183 289.842L409.189 289.849L409.196 289.855L409.89 289.135ZM410.31 289.765L409.378 290.128L409.384 290.144L409.391 290.159L410.31 289.765ZM410.19 291.615L409.328 291.109L409.324 291.116L409.32 291.123L410.19 291.615ZM409.33 292.315L408.959 291.387L408.33 291.638V292.315H409.33ZM409.33 292.335H408.33V293.097L409.064 293.299L409.33 292.335ZM409.81 292.585L409.143 293.331L409.154 293.341L409.166 293.35L409.81 292.585ZM410.12 292.975L409.233 293.438L409.238 293.446L409.242 293.454L410.12 292.975ZM410.29 293.465L409.307 293.647L409.31 293.665L409.314 293.682L410.29 293.465ZM410.37 294.005L411.368 293.947L411.368 293.939L411.367 293.931L410.37 294.005ZM410.42 294.875L409.424 294.958L409.425 294.979L409.428 294.999L410.42 294.875ZM410.5 295.335L409.525 295.557L409.531 295.584L409.539 295.61L410.5 295.335ZM410.67 295.695V296.695H412.643L411.476 295.104L410.67 295.695ZM409.1 295.695L408.166 296.052L408.412 296.695H409.1V295.695ZM408.94 294.885L409.938 294.822V294.822L408.94 294.885ZM408.85 293.985L409.84 293.847L409.84 293.844L408.85 293.985ZM408.51 293.165L409.217 292.458H409.217L408.51 293.165ZM406.09 292.905V291.905H405.09V292.905H406.09ZM406.09 295.695V296.695H407.09V295.695H406.09ZM404.52 295.695H403.52V296.695H404.52V295.695ZM406.09 292.785H407.81V290.785H406.09V292.785ZM407.81 292.785C408.297 292.785 408.849 292.68 409.284 292.293L407.956 290.798C407.992 290.765 408.016 290.761 407.998 290.767C407.977 290.773 407.919 290.785 407.81 290.785V292.785ZM409.284 292.293C409.765 291.865 409.89 291.268 409.89 290.765H407.89C407.89 290.814 407.887 290.849 407.884 290.873C407.88 290.896 407.877 290.905 407.878 290.903C407.878 290.901 407.884 290.887 407.897 290.866C407.911 290.845 407.93 290.821 407.956 290.798L409.284 292.293ZM409.89 290.765C409.89 290.265 409.76 289.672 409.269 289.254L407.972 290.777C407.945 290.754 407.923 290.729 407.907 290.705C407.892 290.681 407.884 290.664 407.882 290.657C407.879 290.65 407.882 290.654 407.884 290.673C407.887 290.691 407.89 290.721 407.89 290.765H409.89ZM409.284 289.268C408.849 288.881 408.297 288.775 407.81 288.775V290.775C407.919 290.775 407.977 290.788 407.998 290.794C408.016 290.799 407.992 290.795 407.956 290.763L409.284 289.268ZM407.81 288.775H406.09V290.775H407.81V288.775ZM405.09 289.775V291.785H407.09V289.775H405.09ZM404.52 289.555H408.37V287.555H404.52V289.555ZM408.37 289.555C408.578 289.555 408.73 289.59 408.842 289.637L409.618 287.794C409.223 287.628 408.802 287.555 408.37 287.555V289.555ZM408.871 289.649C409.013 289.703 409.111 289.77 409.183 289.842L410.597 288.428C410.309 288.14 409.967 287.927 409.589 287.782L408.871 289.649ZM409.196 289.855C409.279 289.935 409.338 290.024 409.378 290.128L411.242 289.403C411.096 289.027 410.874 288.695 410.584 288.415L409.196 289.855ZM409.391 290.159C409.434 290.259 409.46 290.377 409.46 290.525H411.46C411.46 290.127 411.387 289.739 411.229 289.371L409.391 290.159ZM409.46 290.525C409.46 290.8 409.402 290.982 409.328 291.109L411.052 292.122C411.338 291.636 411.46 291.091 411.46 290.525H409.46ZM409.32 291.123C409.281 291.191 409.196 291.292 408.959 291.387L409.701 293.244C410.264 293.019 410.752 292.653 411.061 292.107L409.32 291.123ZM408.33 292.315V292.335H410.33V292.315H408.33ZM409.064 293.299C409.135 293.319 409.151 293.337 409.143 293.331L410.477 291.84C410.216 291.607 409.911 291.458 409.596 291.371L409.064 293.299ZM409.166 293.35C409.188 293.369 409.211 293.395 409.233 293.438L411.007 292.513C410.869 292.249 410.685 292.015 410.454 291.82L409.166 293.35ZM409.242 293.454C409.267 293.5 409.291 293.561 409.307 293.647L411.273 293.283C411.223 293.009 411.133 292.744 410.998 292.496L409.242 293.454ZM409.314 293.682C409.344 293.816 409.363 293.948 409.373 294.079L411.367 293.931C411.35 293.702 411.317 293.474 411.266 293.248L409.314 293.682ZM409.372 294.064C409.378 294.171 409.385 294.299 409.391 294.449L411.389 294.362C411.382 294.205 411.375 294.066 411.368 293.947L409.372 294.064ZM409.391 294.449C409.398 294.616 409.409 294.786 409.424 294.958L411.417 294.792C411.404 294.645 411.395 294.501 411.389 294.362L409.391 294.449ZM409.428 294.999C409.452 295.19 409.484 295.376 409.525 295.557L411.475 295.114C411.45 295.001 411.429 294.881 411.412 294.751L409.428 294.999ZM409.539 295.61C409.606 295.845 409.709 296.076 409.864 296.287L411.476 295.104C411.484 295.115 411.475 295.106 411.462 295.061L409.539 295.61ZM410.67 294.695H409.1V296.695H410.67V294.695ZM410.034 295.338C409.992 295.228 409.953 295.062 409.938 294.822L407.942 294.949C407.967 295.335 408.035 295.709 408.166 296.052L410.034 295.338ZM409.938 294.822C409.917 294.485 409.884 294.16 409.84 293.847L407.86 294.124C407.896 294.383 407.924 294.659 407.942 294.949L409.938 294.822ZM409.84 293.844C409.772 293.365 409.606 292.847 409.217 292.458L407.803 293.872C407.78 293.849 407.785 293.843 407.801 293.883C407.819 293.925 407.842 294.002 407.86 294.127L409.84 293.844ZM409.217 292.458C408.77 292.011 408.165 291.905 407.66 291.905V293.905C407.788 293.905 407.853 293.92 407.875 293.927C407.893 293.932 407.854 293.923 407.803 293.872L409.217 292.458ZM407.66 291.905H406.09V293.905H407.66V291.905ZM405.09 292.905V295.695H407.09V292.905H405.09ZM406.09 294.695H404.52V296.695H406.09V294.695ZM405.52 295.695V288.555H403.52V295.695H405.52Z" fill="white" mask="url(#path-10-inside-1_605_243)"/>
<path d="M408.134 300.269C412.627 300.269 416.269 296.627 416.269 292.134C416.269 287.642 412.627 284 408.134 284C403.642 284 400 287.642 400 292.134C400 296.627 403.642 300.269 408.134 300.269Z" fill="white" stroke="white" stroke-width="2" stroke-miterlimit="10"/>
<path d="M233.05 283.928C237.156 283.928 240.912 284.431 244.326 285.43L245.004 285.636C248.363 286.702 251.251 288.277 253.678 290.361L254.157 290.785C256.521 292.937 258.396 295.589 259.782 298.746L260.053 299.385C261.455 302.819 262.165 306.812 262.165 311.377C262.165 314.354 261.862 317.528 261.263 320.893H214.455L214.375 321.296C214.288 321.734 214.244 322.138 214.244 322.507V323.318L214.251 323.314V325.101C214.251 328.804 215.363 331.871 217.616 334.253L217.838 334.48C220.259 336.921 223.936 338.091 228.759 338.091C230.53 338.091 232.129 337.817 233.551 337.251L233.552 337.252C234.947 336.7 236.177 335.997 237.244 335.136L237.243 335.135C238.303 334.284 239.232 333.304 240.036 332.194L240.037 332.195C240.761 331.199 241.428 330.236 242.048 329.308H258.498C257.262 332.401 255.847 335.142 254.249 337.538L253.903 338.047C252.166 340.553 250.114 342.684 247.746 344.442L247.269 344.788C244.86 346.49 242.079 347.791 238.913 348.682L238.275 348.854C234.842 349.747 230.851 350.2 226.296 350.2C222.346 350.2 218.742 349.697 215.487 348.7L214.841 348.494C211.422 347.363 208.52 345.646 206.118 343.352H206.119C203.87 341.2 202.088 338.567 200.779 335.443L200.523 334.812C199.198 331.419 198.53 327.445 198.53 322.877C198.53 318.135 199.241 313.558 200.665 309.142L200.959 308.261C202.478 303.867 204.582 299.941 207.271 296.485L207.817 295.8C210.576 292.414 213.921 289.668 217.857 287.563L218.652 287.15C222.916 285.005 227.714 283.928 233.05 283.928ZM234.042 296.159C231.615 296.159 229.568 296.491 227.715 297.168L227.347 297.308C225.413 298.071 223.724 299.088 222.284 300.365C220.847 301.638 219.645 303.125 218.68 304.82C217.723 306.494 216.911 308.253 216.248 310.094L216.007 310.764H246.34V310.264C246.34 308.586 246.195 306.929 245.904 305.29L245.831 304.878H245.817C245.544 303.578 245.101 302.366 244.48 301.247L244.173 300.725V300.724L244.004 300.463C243.196 299.266 242.093 298.296 240.712 297.545L240.412 297.388L240.41 297.387L240.096 297.236C238.492 296.508 236.464 296.159 234.042 296.159Z" fill="white" stroke="white"/>
<path d="M299.442 283.928C303.548 283.928 307.305 284.431 310.719 285.43L311.396 285.636C314.979 286.773 318.027 288.489 320.55 290.785C322.913 292.937 324.788 295.589 326.175 298.746L326.445 299.385C327.847 302.819 328.558 306.812 328.558 311.377C328.558 314.354 328.254 317.528 327.655 320.893H280.848L280.768 321.296C280.68 321.734 280.637 322.138 280.637 322.507V323.318L280.644 323.314V325.101C280.644 328.923 281.828 332.066 284.229 334.479V334.48C286.651 336.921 290.328 338.091 295.151 338.091C296.923 338.091 298.522 337.817 299.943 337.251L299.944 337.252C301.339 336.7 302.569 335.997 303.637 335.136L303.636 335.135C304.695 334.284 305.625 333.304 306.429 332.194L306.43 332.195C307.154 331.199 307.821 330.236 308.44 329.308H324.891C323.655 332.401 322.24 335.142 320.642 337.538L320.296 338.047C318.559 340.553 316.507 342.684 314.139 344.442L313.661 344.788C311.252 346.49 308.472 347.791 305.306 348.682L304.668 348.854C301.234 349.747 297.244 350.2 292.688 350.2C288.735 350.2 285.134 349.697 281.88 348.7L281.233 348.494C277.814 347.363 274.913 345.646 272.511 343.352H272.512C270.263 341.2 268.481 338.567 267.172 335.443L266.916 334.812C265.591 331.419 264.923 327.445 264.923 322.877C264.923 318.135 265.634 313.558 267.058 309.142L267.352 308.261C268.871 303.867 270.975 299.941 273.664 296.485L274.21 295.8C276.972 292.414 280.314 289.668 284.25 287.563L285.045 287.15C289.308 285.005 294.107 283.928 299.442 283.928ZM300.438 296.159C298.012 296.159 295.965 296.491 294.111 297.168L293.743 297.308C291.93 298.023 290.331 298.961 288.952 300.129L288.68 300.365C287.421 301.479 286.347 302.758 285.449 304.195L285.075 304.82C284.118 306.494 283.307 308.253 282.644 310.094L282.402 310.764H312.736V310.264C312.736 308.586 312.592 306.929 312.301 305.29L312.228 304.878H312.213C311.939 303.578 311.496 302.366 310.876 301.247L310.569 300.725V300.724L310.4 300.463C309.592 299.266 308.489 298.296 307.108 297.545L306.808 297.388L306.807 297.387L306.491 297.236C304.887 296.508 302.86 296.159 300.438 296.159Z" fill="white" stroke="white"/>
</g>
<defs>
<clipPath id="clip0_605_243">
<rect width="427.528" height="352" fill="white"/>
</clipPath>
</defs>
</svg>
